<svg xmlns="http://www.w3.org/2000/svg" viewBox="0 0 1920 713"><defs><style>.cls-1{fill:#b0201f;}.cls-2{fill:#fff;}</style></defs><g id="Capa_2" data-name="Capa 2"><path class="cls-1" d="M787.75,579q11.06,0,17.84-6.56t6.8-17.31q0-10.58-6.66-17T788,531.5q-11-.18-17.81,6.59t-6.76,17.46a22.29,22.29,0,0,0,6.9,16.76Q777.24,579,787.75,579Z"/><polygon class="cls-1" points="579.33 542.02 569 564.39 589.89 564.39 579.33 542.02"/><polygon class="cls-1" points="1356.51 542.02 1346.17 564.39 1367.06 564.39 1356.51 542.02"/><path class="cls-1" d="M1897,638.15l-81.19-89.42L1897,459.35H23l74.17,89.37L23,638.15Zm-444-78.83q-8.3-2.62-11.78-4.9a18.09,18.09,0,0,1-5.86-6.65,18.49,18.49,0,0,1-2.37-8.93,20.26,20.26,0,0,1,7.63-16.41q7.64-6.3,20-6.3,14.58,0,24.5,7.91l-11.79,11.16q-9.3-4.74-13.38-4.74a7.83,7.83,0,0,0-5.43,2,6.39,6.39,0,0,0-2.27,4.88q0,5.61,11.78,9.71a87.12,87.12,0,0,1,13,5.76,21.91,21.91,0,0,1,7.4,7.14,17.68,17.68,0,0,1,3,9.88q0,9.76-9.14,17a33.75,33.75,0,0,1-21.59,7.23q-13.65,0-27-11.1l12.45-12.54q8.35,7.45,15.66,7.45a10.12,10.12,0,0,0,6.56-2.62q3.15-2.62,3.15-5.5Q1467.53,563.85,1453,559.32Zm-103.83-42.15h14.67l35.81,75.89h-19.06l-7-14.91h-33.73l-6.89,14.91h-19Zm-133.4,0h29q13.2,0,20.87,6t7.68,16.24a24.94,24.94,0,0,1-3.52,12.13q-3.52,6.3-13,9.88l24.6,31.64H1259.6l-22.75-29.36h-2.14v29.36h-18.94Zm-88.1,0h49.47v15h-30.52v15.32h30.52v14.8h-30.52V578h30.52v15h-49.47Zm-118.15,0h18.73L1068.57,566V517.17h18.54v75.89h-18.46l-40.18-49.13v49.13h-19Zm-58.37,0h19v75.89h-19Zm-79.92,0H890V576.7h25.9v16.36H871.23ZM756.59,527.31q12.88-10.95,30.56-10.95,19.54,0,32.33,11a36.71,36.71,0,0,1,.14,55.57Q807,594,787.75,594t-31.63-11q-12.42-11-12.42-27.92A34.87,34.87,0,0,1,756.59,527.31Zm-80.76,32q-8.31-2.62-11.78-4.9a18,18,0,0,1-5.86-6.65,18.39,18.39,0,0,1-2.38-8.93,20.29,20.29,0,0,1,7.63-16.41q7.63-6.3,19.95-6.3,14.6,0,24.5,7.91L696.11,535.2q-9.3-4.74-13.39-4.74a7.81,7.81,0,0,0-5.42,2,6.37,6.37,0,0,0-2.28,4.88q0,5.61,11.79,9.71a88.07,88.07,0,0,1,13.05,5.76,21.91,21.91,0,0,1,7.4,7.14,17.76,17.76,0,0,1,3,9.88q0,9.76-9.14,17a33.75,33.75,0,0,1-21.59,7.23q-13.65,0-27-11.1L665,570.46q8.37,7.45,15.67,7.45a10.14,10.14,0,0,0,6.56-2.62c2.1-1.75,3.14-3.58,3.14-5.5Q690.35,563.85,675.83,559.32ZM572,517.17h14.68l35.81,75.89H603.41l-7-14.91H562.65l-6.89,14.91h-19ZM432.47,527.4q12.88-11.28,31-11.27,23.16,0,35.62,17.51l-12.59,10.17a25.34,25.34,0,0,0-9.77-8.81,26.82,26.82,0,0,0-12.19-2.92,26,26,0,0,0-17.9,6.76q-7.61,6.76-7.6,15.95a21.35,21.35,0,0,0,7.6,16.56,26.51,26.51,0,0,0,18.31,6.8,25.91,25.91,0,0,0,11.21-2.55q5.38-2.54,8.67-9.53H464v-14.8H504.6v9.82q0,7.57-6,16.28a34.93,34.93,0,0,1-15.86,12.71,52.19,52.19,0,0,1-19.89,4q-18.19,0-30.72-11.39a36.52,36.52,0,0,1-12.52-28.15Q419.58,538.68,432.47,527.4Z"/><path class="cls-1" d="M1253.79,540a7.74,7.74,0,0,0-3.86-6.79q-3.87-2.52-10.72-2.52h-4.37v19.77h4.1Q1253.79,550.46,1253.79,540Z"/></g><g id="Capa_1" data-name="Capa 1"><polygon class="cls-1" points="295.93 191.07 381.13 191.07 440.74 126.47 229.22 126.47 229.22 374.14 295.93 374.14 295.93 280.59 381.41 280.59 381.41 221.8 295.93 221.8 295.93 191.07"/><polygon class="cls-1" points="683.55 126.47 616.83 126.47 616.83 374.15 774.16 374.14 774.16 309.53 683.55 309.53 683.55 126.47"/><polygon class="cls-1" points="948.02 309.53 857.4 309.53 857.4 126.47 790.68 126.47 790.68 374.14 948.02 374.14 948.02 309.53"/><path class="cls-1" d="M533.15,279.49c0,18.78-14.45,34.13-32.1,34.13s-32-15.35-32-34.13l-.09-153-64,66.68v84.26h.14c2.66,53.92,44.65,96.73,96,96.73,50.52,0,91.86-41.4,95.72-94l.33-153.71h-64Z"/><polygon class="cls-2" points="1200.6 285.07 1200.6 379.23 1349.7 221.31 1349.7 280.49 1311.56 280.49 1251.89 345.17 1349.7 345.17 1349.7 374.14 1414.7 374.14 1414.7 126.47 1349.6 126.47 1200.6 285.07"/><path class="cls-2" d="M1117.13,221.28v89.91H1090.8c-31.62,0-57.25-27.26-57.25-60.92s25.7-60.89,57.37-60.89l79,0,57.86-62.87H1088.84c-63.37,1.23-114.47,56.15-114.47,123.8,0,68.28,51.87,123.47,116,123.87H1178V221.28Z"/><path class="cls-2" d="M1535.12,221.54h-25.5c-10,0-18.21-8.14-18.21-18.85s8.17-19.24,18.21-19.24H1578l-19-57.87h-55c-40,0-72.54,34.54-72.54,77.11s32.52,76.65,72.54,76.65h26.39c10,0,18.2,8.16,18.2,18.91s-8.17,19.25-18.2,19.25h-96.06v57.84h100.85c40.11,0,72.57-34.61,72.57-77.09,0-42.69-32.46-76.71-72.57-76.71"/><path class="cls-2" d="M1712.32,167.69c-27.55-34.13-59.33-53.7-69.8-53.7h-16.21V125.6h-51.06l19,57.86h33.34c12,0,6.33-8.87,13.69-8.87s7.33,6.43,17,6.43,10.77-29.6,22.27-19.84c34.77,29.65,48.8,64,48.8,64l14.63-3.42s-11.73-29.66-31.58-54.06m-107.39.88s16.14-8.28,15-19.82c-6.88,6.93-21.45,12-21.45,12s-7.69-10.68,8.87-16.29,27.87,2.12,29.88,21.49c-16.53,13.25-32.26,2.62-32.26,2.62"/><path class="cls-2" d="M1710.51,74.85c-12.38,0-22.43,10.67-22.43,23.84s10.05,23.83,22.43,23.83,22.42-10.67,22.42-23.83-10-23.84-22.42-23.84m0,44c-10.49,0-19-9-19-20.18s8.5-20.18,19-20.18,19,9,19,20.18-8.5,20.18-19,20.18"/><polygon class="cls-2" points="1697.47 91.03 1699.87 91.03 1703.63 100.57 1703.7 100.57 1707.43 91.03 1709.83 91.03 1709.83 103.63 1708.22 103.63 1708.22 93.27 1708.19 93.27 1704.18 103.63 1703.11 103.63 1699.11 93.27 1699.08 93.27 1699.08 103.63 1697.47 103.63 1697.47 91.03"/><path class="cls-2" d="M1714.41,91h4.15a4.51,4.51,0,0,1,1.89.33,3.2,3.2,0,0,1,1.16.83,2.83,2.83,0,0,1,.59,1.14,4.9,4.9,0,0,1,.17,1.22,3.55,3.55,0,0,1-.2,1.17,3.09,3.09,0,0,1-.58,1,3.58,3.58,0,0,1-.91.77,3.16,3.16,0,0,1-1.23.38l3.37,5.75h-2l-3-5.55H1716v5.55h-1.6Zm1.6,5.55h2.1a4.9,4.9,0,0,0,.94-.08,2.42,2.42,0,0,0,.82-.29,1.65,1.65,0,0,0,.58-.62,2.21,2.21,0,0,0,.21-1,2.24,2.24,0,0,0-.21-1,1.73,1.73,0,0,0-.58-.62,2.42,2.42,0,0,0-.82-.29,5.86,5.86,0,0,0-.94-.07H1716Z"/><path class="cls-2" d="M1712.06,103.74a1.09,1.09,0,0,1-.79-.35,1.24,1.24,0,0,1,0-1.66,1,1,0,0,1,.79-.34,1,1,0,0,1,.77.34,1.21,1.21,0,0,1,0,1.66,1,1,0,0,1-.77.35"/><path class="cls-2" d="M1723.93,103.74a1.07,1.07,0,0,1-.78-.35,1.24,1.24,0,0,1,0-1.66,1.06,1.06,0,0,1,1.56,0,1.24,1.24,0,0,1,0,1.66,1.07,1.07,0,0,1-.78.35"/></g></svg>