<svg version="1.2" xmlns="http://www.w3.org/2000/svg" viewBox="0 0 124 50" width="124" height="50"><defs><clipPath clipPathUnits="userSpaceOnUse" id="cp1"><path d="m0 59.48h123.52v-59.48h-123.52z"/></clipPath><clipPath clipPathUnits="userSpaceOnUse" id="cp2"><path d="m0 59.48h123.52v-59.48h-123.52z"/></clipPath></defs><style>.a{fill:#808080}</style><g clip-path="url(#cp1)"><path class="a" d="m19.5 44.4q0.6-1.1 0.8-2.3c0.5-2.2 0.1-4.4-1.1-6.2-0.9-1.4-2.4-2.4-4-2.8-1.7-0.4-3.4 0-4.9 0.9-1.1 0.7-1.8 1.8-2.1 3.1-0.3 1.3 0 2.6 0.7 3.7 0.5 0.9 1.4 1.4 2.3 1.7 1 0.2 2 0 2.9-0.6 0.6-0.4 1-1 1.2-1.7 0.2-0.8 0-1.5-0.4-2.2-0.3-0.4-0.7-0.7-1.3-0.9-0.5-0.1-1.1 0-1.6 0.3-0.3 0.2-0.5 0.6-0.6 0.9-0.1 0.4 0 0.8 0.2 1.2q0 0 0 0h-2q-0.2-0.7 0-1.5c0.2-0.9 0.7-1.7 1.4-2.1 0.9-0.6 2-0.8 3-0.6 1 0.2 1.9 0.8 2.5 1.7 0.6 1.1 0.9 2.3 0.6 3.6-0.2 1.2-1 2.2-2 2.9-1.3 0.8-2.8 1.1-4.3 0.8-1.4-0.3-2.7-1.2-3.5-2.5q-0.8-1.1-1-2.5-0.2-1.3 0-2.6 0.3-1.3 1.1-2.4 0.7-1.1 1.9-1.9 1.4-0.9 3.1-1.2 1.6-0.3 3.1 0.1 1.6 0.3 3 1.2 1.3 1 2.2 2.4 1.2 1.7 1.5 3.7 0.4 2-0.1 3.9-0.2 1-0.6 1.9h8.9q-0.4-0.9-0.6-1.9-0.4-1.9-0.1-3.9 0.4-2 1.5-3.7 0.9-1.4 2.3-2.3 0.6-0.5 1.2-0.8-1.2-0.1-2.5-0.1c-3.1 0.1-6 0.8-7.7 1.8l-1-1.6q0 0 0 0c1.4-0.9 3.3-1.5 5.6-1.8q-1.6-2.2-3.7-3.8-2.1-1.5-4.5-2.3c-1.6-0.6-3.2-0.9-4.9-1-3.5-0.1-6.9 0.8-9.9 2.7q-2.3 1.5-3.8 3.7-1.4 2.2-2 4.8-0.5 2.5-0.1 5.1 0.5 2.6 2 4.9 1.1 1.8 2.9 3 1.7 1.2 3.7 1.6 2 0.4 4 0.1 2.1-0.4 3.9-1.5c1.1-0.8 2.1-1.8 2.8-3z"/></g><g clip-path="url(#cp2)"><path class="a" d="m32.5 44.4c0.7 1.2 1.6 2.2 2.8 2.9q1.8 1.2 3.9 1.6 2 0.3 4-0.1 2-0.4 3.7-1.6 1.7-1.2 2.9-3 1.5-2.3 2-4.9 0.4-2.6-0.1-5.2-0.6-2.5-2.1-4.7-1.5-2.2-3.8-3.7c-2.9-1.9-6.3-2.8-9.8-2.7q-2.6 0.1-5 0.9-1.8 0.7-3.4 1.7 2.1 1.8 3.6 4.1 0 0.1 0.1 0.2 0.4 0 0.9-0.1 2.6 0 5 0.5c1.6 0.3 3.1 0.8 4.4 1.5q1.2 0.6 2 1.4h0.1q0.5 0.5 0.9 1.1 0.7 1.1 1 2.4 0.3 1.3 0 2.6-0.2 1.4-1 2.5c-0.8 1.3-2 2.2-3.5 2.5-1.5 0.3-3 0-4.2-0.8-1.1-0.7-1.8-1.7-2.1-3-0.2-1.2 0-2.4 0.7-3.5 0.6-0.9 1.4-1.5 2.5-1.7 1-0.2 2.1 0 2.9 0.5 0.8 0.5 1.3 1.3 1.5 2.1q0.2 0.8-0.1 1.6h-2q0 0 0-0.1c0.3-0.3 0.3-0.7 0.2-1.1 0-0.3-0.3-0.7-0.6-0.9-0.5-0.3-1-0.4-1.6-0.3-0.5 0.1-1 0.4-1.3 0.9-0.4 0.6-0.5 1.4-0.3 2.1 0.1 0.8 0.5 1.4 1.2 1.8 0.8 0.5 1.8 0.7 2.8 0.5 1-0.2 1.8-0.8 2.4-1.6 0.7-1.1 0.9-2.4 0.7-3.7-0.3-1-0.8-1.9-1.5-2.6q-0.3-0.3-0.7-0.5c-1.4-0.9-3.1-1.3-4.8-0.9-1.7 0.4-3.1 1.4-4 2.8-1.2 1.8-1.6 4-1.2 6.2q0.3 1.2 0.9 2.3z"/><path fill-rule="evenodd" class="a" d="m70.7 11.1q0 4.9-3 8.2-3 3.3-7.9 3.3-4.9 0-8-3.3-2.9-3.2-2.9-8.1 0-4.9 3.1-8.1 3.1-3.1 8-3.1 4.5 0 7.6 3.2 3.1 3.1 3.1 7.9zm-4.7 0.3q0-3.9-1.7-6.1-1.7-2.2-4.6-2.2-3.1 0-4.7 2.7-1.5 2.2-1.5 5.5 0 3.3 1.5 5.6 1.6 2.6 4.8 2.6 2.8 0 4.5-2.2 1.6-2.2 1.7-5.9z"/><path class="a" d="m89.6 6.5q0 3.3-2.4 5.4-2.5 2-6.6 2.1v-2.7q4.6-0.4 4.6-4.3 0-2.5-1.8-3.3-0.9-0.4-3-0.4h-1.3v18.9h-4.3v-21.8h5.8q2.3 0 3.3 0.1 1.8 0.2 3 1 2.8 1.7 2.7 5z"/><path class="a" d="m72.1 29h-6.8v18.9h-4.4v-18.9h-6.7v-3h17.8v3z"/><path class="a" d="m79.2 47.9h-4.4v-21.9h4.4z"/><path class="a" d="m97.5 47.9h-13.1v-21.9h11.8v3h-7.4v5.9h7.3v3h-7.3v7.1h8.7v2.9z"/><path fill-rule="evenodd" class="a" d="m117.5 47.9h-5l-4.3-8.9h-2.7v8.9h-4.3v-21.9h6.3q2.1 0 3.1 0.2 1.7 0.2 2.9 1 2.2 1.7 2.2 4.7 0 4-3.8 6.2zm-6.2-15.6q0-2-1.3-2.8-0.8-0.6-2.8-0.6h-1.7v7.4h1.3q2.4 0 3.4-1.1 1.1-1 1.1-2.9z"/><path class="a" d="m41.7 22.2c0 0-0.3-0.1-0.6-0.2-0.4-0.1-1.2-0.2-2-0.3-0.8-0.2-1.8-0.2-1.8-0.2v-18.2h-6.7v-2.9h17.9v2.9h-6.8z"/><path class="a" d="m118.6 26.5h-1v-0.4h2.4v0.4h-1v2.8h-0.4z"/><path class="a" d="m123 27.9c0-0.4 0-1 0-1.4q-0.2 0.6-0.4 1.2l-0.6 1.6h-0.3l-0.5-1.5q-0.3-0.7-0.4-1.3c0 0.4-0.1 1-0.1 1.4l-0.1 1.4h-0.4l0.3-3.2h0.5l0.5 1.5q0.2 0.6 0.4 1.1 0.1-0.5 0.3-1.1l0.6-1.5h0.5l0.2 3.2h-0.4z"/></g></svg>